<?xml version="1.0" encoding="utf-8"?>
<svg version="1.0" xmlns="http://www.w3.org/2000/svg" width="1800.000000pt" height="1800.000000pt" viewBox="0 0 1800.000000 1800.000000" preserveAspectRatio="xMidYMid meet">
  <g transform="translate(0.000000,1800.000000) scale(0.040000,-0.040000)" fill="#1e3a5f" stroke="none">
    <path d="M21546 38363 c-8 -9 -104 -21 -212 -27 -465 -25 -774 -58 -1284 -140 -89 -14 -196 -30 -237 -36 -194 -28 -821 -154 -927 -186 -42 -13 -126 -35 -187 -48 -342 -75 -460 -105 -501 -127 -24 -13 -76 -24 -115 -25 -39 0 -92 -17 -119 -37 -27 -20 -77 -37 -113 -38 -35 0 -92 -17 -126 -36 -34 -20 -87 -37 -116 -37 -29 -1 -86 -18 -125 -38 -39 -21 -94 -38 -121 -39 -28 0 -72 -17 -99 -37 -27 -20 -69 -37 -93 -37 -24 0 -81 -16 -126 -35 -46 -19 -133 -54 -195 -77 -62 -23 -144 -58 -183 -77 -39 -20 -86 -36 -104 -36 -19 0 -66 -15 -105 -34 -39 -19 -115 -54 -170 -78 -194 -83 -252 -109 -450 -201 -110 -52 -234 -109 -275 -128 -42 -19 -92 -45 -113 -57 -21 -12 -105 -55 -187 -96 -280 -138 -708 -369 -888 -480 -33 -20 -408 -253 -564 -351 -33 -21 -147 -99 -254 -173 -107 -75 -245 -170 -307 -211 -192 -129 -512 -374 -532 -408 -11 -18 -31 -33 -44 -33 -103 0 -1441 -1233 -1953 -1801 -105 -116 -212 -234 -238 -261 -76 -82 -589 -713 -711 -875 -311 -413 -889 -1285 -1067 -1611 -33 -60 -81 -145 -106 -187 -100 -168 -433 -823 -605 -1190 -42 -89 -91 -192 -110 -229 -19 -36 -34 -79 -34 -94 0 -15 -34 -98 -75 -186 -41 -87 -75 -170 -75 -185 0 -15 -16 -59 -36 -98 -19 -39 -52 -115 -72 -170 -20 -55 -55 -148 -77 -207 -82 -216 -110 -300 -190 -556 -154 -499 -187 -620 -336 -1219 -19 -79 -54 -233 -76 -343 -23 -111 -53 -251 -67 -313 -15 -62 -35 -180 -45 -262 -21 -164 -64 -440 -105 -675 -14 -83 -37 -285 -50 -450 -14 -165 -32 -385 -41 -488 -22 -244 -21 -1982 1 -2225 9 -103 27 -311 40 -462 22 -263 44 -435 106 -825 15 -97 37 -243 48 -325 11 -83 32 -201 47 -263 15 -62 45 -202 67 -312 22 -110 56 -255 75 -322 20 -67 36 -139 36 -160 0 -22 18 -102 39 -179 22 -77 57 -201 78 -277 21 -76 52 -182 69 -237 17 -55 51 -168 75 -250 24 -83 60 -187 79 -233 19 -45 35 -101 35 -125 0 -23 17 -75 38 -114 20 -39 37 -91 37 -114 0 -23 17 -64 37 -91 20 -27 37 -72 37 -100 1 -28 18 -73 38 -100 20 -27 37 -69 37 -95 1 -25 17 -76 36 -112 19 -37 54 -117 78 -179 24 -62 58 -146 76 -187 18 -42 55 -126 82 -188 293 -667 611 -1279 951 -1831 91 -148 177 -289 191 -313 154 -273 861 -1246 1148 -1583 42 -49 110 -129 152 -178 317 -375 462 -530 925 -989 478 -474 839 -803 1175 -1068 68 -54 130 -106 137 -114 42 -50 1035 -774 1062 -774 6 0 81 -49 168 -109 87 -60 332 -212 545 -338 213 -126 404 -240 425 -252 53 -33 1147 -574 1238 -613 41 -17 119 -52 175 -76 153 -70 236 -104 400 -165 82 -32 160 -66 173 -77 13 -11 48 -20 76 -20 29 0 64 -11 77 -23 21 -21 392 -158 524 -193 27 -8 85 -30 128 -49 44 -19 103 -35 133 -35 30 0 77 -12 104 -27 28 -15 114 -44 193 -65 78 -20 198 -54 267 -74 68 -20 170 -47 225 -59 55 -13 167 -39 250 -59 272 -65 372 -87 575 -128 110 -22 250 -51 312 -65 121 -26 287 -50 763 -110 165 -20 328 -44 364 -51 451 -97 2580 -102 3311 -8 110 14 290 35 400 46 110 11 267 32 350 46 82 14 256 44 387 67 293 50 580 106 713 140 55 14 150 35 212 47 137 26 311 70 413 104 41 14 114 35 162 47 182 44 315 81 400 112 48 17 155 51 238 74 82 24 181 59 220 78 39 19 96 35 127 35 30 0 77 17 104 37 27 20 71 37 99 38 27 1 71 18 98 38 27 20 70 37 96 37 26 0 78 16 114 35 37 19 117 54 179 79 62 24 163 65 225 92 62 27 135 58 163 69 206 83 1077 510 1350 662 82 46 178 99 212 118 56 31 463 276 585 353 480 298 1264 863 1603 1153 82 71 183 154 223 185 323 247 1224 1127 1589 1551 76 88 155 178 176 200 214 223 933 1165 1174 1539 493 766 666 1066 1000 1739 273 549 361 740 499 1088 44 110 96 231 115 270 20 39 36 90 36 114 0 24 10 54 23 67 12 13 34 63 48 111 31 108 77 238 118 338 17 41 51 142 75 225 23 82 57 189 74 237 18 48 51 161 74 250 50 192 95 361 146 550 21 76 56 228 79 338 23 110 53 250 68 312 27 113 38 175 93 525 17 103 41 236 54 296 13 60 30 195 37 300 8 105 25 237 38 292 109 444 108 2956 -1 3586 -13 76 -37 240 -53 364 -66 523 -81 613 -153 912 -15 62 -35 169 -45 238 -18 126 -51 274 -113 500 -19 68 -40 153 -47 187 -7 34 -29 119 -49 188 -20 68 -54 186 -75 262 -36 131 -56 194 -118 381 -15 45 -37 115 -48 157 -23 83 -133 401 -186 537 -104 269 -197 496 -228 558 -20 39 -36 91 -36 116 0 25 -17 59 -37 76 -21 17 -38 46 -38 64 0 17 -16 64 -35 103 -20 39 -157 318 -305 621 -148 302 -297 595 -332 650 -35 55 -91 149 -124 210 -74 137 -114 205 -248 419 -168 269 -150 240 -465 708 -105 155 -580 788 -694 925 -52 62 -170 202 -262 313 -379 453 -1170 1259 -1585 1615 -117 100 -225 193 -240 208 -16 15 -105 88 -198 164 -94 76 -188 154 -210 175 -22 21 -102 82 -177 137 -76 54 -143 105 -150 114 -62 72 -1014 712 -1450 973 -466 280 -1129 618 -1725 880 -237 104 -266 116 -375 158 -62 24 -142 59 -179 78 -36 19 -88 35 -114 35 -26 0 -59 12 -74 27 -15 15 -65 36 -111 48 -83 21 -151 45 -422 151 -76 30 -177 63 -225 74 -48 11 -121 32 -162 45 -153 52 -547 164 -750 214 -83 20 -201 49 -263 65 -115 30 -185 45 -537 113 -110 21 -233 49 -273 63 -40 14 -106 25 -147 25 -41 0 -165 17 -277 37 -299 54 -559 89 -874 117 -154 14 -330 31 -392 38 -181 19 -2086 38 -2104 21z m1063 -1460 c32 -34 41 -84 37 -194 -3 -81 1 -159 9 -172 8 -13 22 -233 31 -487 20 -578 39 -879 56 -907 28 -46 -97 -143 -165 -127 -130 31 -134 44 -151 614 -21 717 -30 728 -213 258 -115 -300 -239 -605 -304 -754 -19 -44 -34 -92 -34 -107 0 -15 -27 -40 -60 -55 -113 -52 -123 -39 -538 766 -207 399 -230 437 -273 437 -26 0 -30 -21 -18 -81 41 -202 60 -370 62 -542 1 -102 14 -257 30 -344 36 -207 -4 -283 -149 -283 -143 0 -149 27 -180 825 -16 392 -34 787 -41 878 -13 180 29 247 157 247 57 0 185 -88 185 -127 0 -12 58 -127 129 -254 168 -299 268 -485 397 -731 169 -323 183 -327 269 -75 47 137 165 424 278 675 24 55 64 150 88 212 24 62 54 132 67 156 12 24 22 57 22 73 0 119 226 191 309 99z m2271 -207 c26 -39 3 -422 -31 -512 -13 -34 -31 -143 -40 -242 -9 -99 -32 -223 -50 -276 -19 -54 -34 -163 -34 -243 0 -80 -10 -151 -21 -158 -12 -7 -29 -100 -38 -206 -19 -228 -8 -212 -153 -217 -154 -6 -190 41 -171 217 8 71 26 150 39 176 14 26 34 133 45 237 31 296 75 583 102 671 14 45 31 163 38 263 19 266 69 352 194 336 53 -7 107 -28 120 -46z m2702 -693 c15 -15 50 -28 78 -28 82 0 256 -97 390 -217 142 -128 168 -240 75 -333 -77 -77 -121 -62 -279 100 -80 83 -166 150 -191 150 -25 0 -56 11 -70 25 -13 13 -91 26 -173 29 -212 6 -371 -59 -527 -218 -274 -280 -273 -663 3 -949 165 -171 319 -225 575 -202 199 18 212 10 212 -136 0 -89 -80 -168 -192 -189 -91 -17 -413 50 -501 105 -30 19 -72 35 -92 35 -20 0 -100 62 -178 139 -417 411 -426 1023 -21 1430 135 135 158 148 434 246 172 61 402 68 457 13z m-11932 -913 c63 -54 119 -94 387 -279 83 -56 252 -174 376 -262 123 -87 331 -230 462 -317 131 -86 252 -169 269 -183 44 -36 39 -163 -8 -210 -86 -85 -160 -60 -441 151 -278 208 -300 214 -451 112 -59 -40 -187 -114 -282 -164 -96 -50 -188 -104 -204 -120 -29 -31 -10 -364 30 -524 38 -148 -40 -269 -174 -269 -120 0 -145 44 -125 221 9 83 4 261 -12 396 -44 382 -79 1463 -47 1501 34 41 140 16 220 -53z m14502 -367 c110 -78 93 -138 -127 -432 -110 -148 -200 -278 -200 -288 0 -11 -23 -41 -50 -65 -88 -80 -60 -124 181 -288 309 -211 371 -255 429 -306 27 -24 60 -44 72 -44 24 0 116 101 117 129 3 48 388 588 439 615 73 38 167 3 212 -81 34 -64 11 -107 -229 -432 -73 -99 -184 -255 -246 -346 -62 -90 -127 -179 -144 -198 -17 -18 -31 -41 -31 -50 0 -10 -34 -60 -75 -112 -41 -52 -75 -102 -75 -112 0 -37 -179 -284 -217 -299 -74 -28 -207 34 -224 105 -19 74 -3 103 185 345 140 180 157 228 87 254 -57 21 -524 337 -614 417 -83 73 -115 66 -181 -39 -27 -42 -68 -107 -92 -143 -24 -36 -51 -82 -60 -103 -63 -142 -195 -189 -284 -100 -81 81 -60 154 108 377 144 193 621 888 680 992 139 247 215 293 339 204z m-6427 -793 c62 -16 208 -39 325 -53 254 -29 572 -83 813 -139 96 -22 236 -51 312 -65 76 -13 166 -34 200 -46 67 -24 201 -64 500 -151 103 -29 205 -63 226 -74 21 -11 77 -29 125 -39 47 -10 98 -27 112 -37 13 -10 98 -44 187 -76 89 -32 174 -66 188 -75 13 -9 81 -37 150 -61 179 -64 849 -382 1125 -533 149 -82 501 -292 512 -306 7 -9 86 -59 175 -112 89 -54 168 -104 175 -111 7 -8 69 -53 138 -100 230 -157 374 -260 387 -275 7 -9 91 -77 188 -152 96 -75 180 -142 187 -150 7 -7 94 -78 193 -157 622 -497 1497 -1482 2069 -2330 401 -595 732 -1199 1014 -1850 12 -28 44 -103 73 -168 28 -64 51 -127 51 -139 0 -12 21 -66 47 -120 27 -54 94 -239 151 -411 111 -337 120 -367 200 -650 29 -103 63 -221 76 -262 12 -42 30 -126 39 -188 9 -62 32 -161 52 -220 19 -59 35 -146 35 -194 0 -48 11 -106 24 -130 13 -24 36 -139 51 -256 14 -117 37 -286 49 -375 13 -89 24 -232 25 -317 0 -85 13 -185 27 -223 34 -90 35 -1610 1 -1802 -14 -80 -37 -269 -50 -420 -28 -323 -65 -603 -100 -762 -14 -62 -43 -198 -65 -301 -55 -265 -136 -601 -161 -675 -12 -34 -41 -130 -64 -212 -73 -262 -296 -895 -390 -1105 -26 -58 -47 -117 -47 -132 0 -14 -11 -26 -25 -26 -14 0 -25 -18 -25 -40 0 -22 -15 -70 -34 -106 -19 -37 -127 -256 -241 -487 -114 -231 -233 -459 -266 -507 -32 -48 -59 -95 -59 -105 -1 -16 -297 -487 -342 -542 -11 -14 -76 -110 -144 -213 -128 -194 -384 -541 -479 -650 -30 -34 -120 -141 -200 -237 -317 -384 -964 -1031 -1347 -1348 -97 -80 -204 -170 -238 -201 -207 -184 -1235 -889 -1407 -965 -30 -14 -112 -59 -180 -101 -126 -76 -709 -365 -1013 -503 -89 -40 -182 -84 -206 -97 -24 -13 -55 -23 -70 -23 -15 0 -74 -21 -132 -47 -140 -62 -414 -162 -629 -229 -97 -30 -198 -64 -225 -76 -28 -12 -95 -32 -150 -45 -55 -13 -207 -50 -338 -84 -466 -120 -563 -140 -950 -196 -103 -15 -227 -37 -275 -50 -242 -65 -1673 -126 -2212 -95 -459 27 -920 70 -1013 95 -48 13 -172 35 -275 49 -660 89 -1938 442 -2281 629 -24 13 -55 24 -70 24 -15 0 -80 23 -144 51 -65 29 -140 61 -167 73 -643 279 -1243 605 -1813 987 -238 159 -794 571 -950 704 -34 29 -152 129 -262 222 -271 229 -1028 996 -1178 1192 -66 87 -126 164 -134 171 -7 7 -58 69 -113 138 -55 68 -111 138 -125 154 -98 111 -376 510 -651 933 -182 279 -556 980 -687 1288 -29 68 -81 179 -114 246 -34 66 -61 131 -61 145 0 25 -84 227 -126 302 -13 24 -24 56 -24 71 0 15 -16 63 -35 107 -19 43 -77 214 -128 379 -51 165 -103 322 -114 350 -11 27 -33 106 -48 175 -16 68 -44 192 -63 275 -93 395 -119 515 -153 712 -20 117 -48 314 -61 438 -13 123 -37 275 -52 337 -40 157 -58 1888 -23 2219 15 141 38 371 52 512 14 141 36 282 50 314 14 32 25 97 25 146 0 100 36 275 165 797 20 82 47 197 60 254 28 128 80 294 193 621 47 137 98 289 112 337 14 48 33 99 43 113 10 13 39 81 63 150 139 384 503 1131 794 1625 203 343 734 1119 850 1239 18 20 72 86 119 148 76 99 364 430 550 632 294 320 800 790 1129 1049 74 58 168 137 210 175 41 38 83 69 94 69 11 0 44 22 73 49 29 27 121 96 205 154 84 57 237 162 340 234 534 368 1530 889 2113 1103 68 25 153 60 187 78 34 17 80 32 101 32 22 0 50 9 63 20 13 11 108 46 211 78 103 33 210 68 238 79 61 25 200 65 400 114 82 21 217 55 300 76 215 54 475 108 662 137 89 13 202 35 250 48 48 14 206 36 350 51 144 14 341 35 438 46 263 31 2152 15 2287 -19z m-10512 -567 c27 -30 105 -116 172 -190 211 -233 620 -669 809 -862 298 -305 250 -372 -213 -300 -148 23 -387 53 -531 66 -144 13 -291 34 -325 46 -34 13 -130 29 -212 37 -83 8 -176 22 -207 30 -47 13 -56 6 -56 -48 0 -34 11 -67 26 -71 54 -19 799 -785 799 -823 0 -59 -114 -173 -173 -173 -48 0 -193 141 -527 513 -74 82 -267 285 -429 450 -304 310 -372 413 -316 480 36 43 271 29 540 -32 87 -20 235 -36 330 -36 94 0 203 -12 242 -27 39 -15 172 -43 296 -61 123 -18 246 -36 272 -41 89 -16 68 51 -49 159 -238 220 -724 725 -732 761 -40 177 156 261 284 122z m19719 -954 c72 -77 178 -190 237 -251 58 -62 106 -126 106 -144 0 -60 -103 -164 -162 -164 -57 0 -94 33 -263 231 -105 123 -135 119 -285 -39 -70 -73 -178 -175 -239 -225 l-111 -93 130 -131 c176 -179 179 -344 6 -342 -73 1 -136 49 -235 180 -81 106 -109 101 -260 -41 -110 -103 -103 -133 68 -277 170 -145 200 -252 95 -339 -93 -78 -124 -60 -377 212 -306 329 -306 329 -36 560 114 96 398 361 632 589 503 489 497 486 694 274z m-22104 -1578 c135 -89 385 -265 397 -280 7 -8 41 -33 75 -57 34 -23 158 -109 275 -192 117 -83 303 -212 413 -286 289 -196 307 -219 248 -329 -26 -48 -64 -88 -85 -90 -88 -7 -142 11 -201 64 -34 32 -175 134 -312 227 -138 93 -312 217 -388 274 -157 119 -392 279 -508 346 -152 88 -181 185 -90 301 61 77 88 81 176 22z m23671 -361 c102 -109 62 -208 -122 -310 -48 -26 -190 -115 -317 -197 -305 -198 -527 -339 -635 -401 -241 -141 -237 -127 -87 -318 140 -179 153 -295 41 -351 -97 -48 -172 -7 -254 136 -77 134 -96 164 -179 286 -137 202 -134 210 192 416 110 70 306 196 437 281 131 85 311 201 400 258 208 133 245 158 309 210 73 59 154 56 215 -10z m-24654 -1596 c83 -77 69 -118 -98 -273 -386 -358 -304 -887 178 -1140 214 -112 609 -33 787 158 85 90 188 310 188 399 0 119 -307 244 -340 138 -114 -358 -198 -466 -315 -404 -105 56 -122 133 -56 261 22 41 80 170 129 287 50 117 99 223 110 235 31 35 165 23 227 -21 31 -21 75 -39 98 -39 22 0 55 -17 72 -37 17 -21 50 -38 74 -38 92 0 260 -113 281 -189 27 -97 -16 -373 -80 -518 -55 -125 -278 -384 -361 -420 -28 -13 -68 -33 -89 -46 -132 -83 -219 -102 -463 -102 -241 0 -263 5 -411 83 -276 147 -430 344 -536 684 -51 167 -50 222 8 427 125 442 422 718 597 555z m25882 -724 c11 -21 55 -122 98 -225 44 -103 95 -219 114 -258 69 -137 40 -234 -76 -256 -130 -24 -171 15 -235 226 -31 105 -73 197 -93 205 -19 7 -145 -32 -279 -87 -134 -56 -269 -109 -301 -118 -64 -18 -59 -133 8 -212 84 -100 72 -286 -21 -309 -127 -32 -216 55 -255 251 -22 114 -72 149 -145 101 -32 -21 -84 -42 -116 -47 -120 -18 -130 -91 -37 -283 110 -226 110 -277 2 -329 -78 -37 -89 -37 -150 3 -36 24 -66 59 -66 78 0 18 -18 76 -40 128 -97 228 -112 262 -152 343 -55 112 -19 202 90 226 42 9 83 27 91 40 8 13 37 23 65 23 28 0 81 15 117 34 95 48 213 99 442 190 110 44 233 95 275 113 41 18 142 60 225 92 82 32 178 72 212 90 79 40 201 30 227 -19z m-28047 -3769 c58 -35 87 -37 176 -13 307 82 648 -231 684 -628 24 -258 117 -465 329 -727 12 -14 48 -62 81 -107 32 -44 78 -81 100 -81 43 0 290 321 375 488 13 27 35 66 47 87 44 76 84 235 94 379 14 215 213 571 319 571 13 0 45 19 71 43 88 80 317 54 425 -47 356 -332 60 -1069 -453 -1129 -126 -15 -249 -104 -373 -269 -45 -61 -127 -163 -181 -228 -102 -121 -124 -206 -65 -255 125 -102 946 -1259 1103 -1552 22 -42 61 -115 88 -163 49 -90 64 -189 31 -208 -33 -20 -132 31 -149 76 -9 25 -65 106 -124 182 -60 76 -117 149 -127 163 -103 136 -349 444 -470 585 -120 142 -447 557 -509 646 -30 44 -75 81 -98 81 -38 0 -229 -221 -229 -264 0 -14 -136 -192 -369 -484 -81 -100 -340 -439 -401 -524 -23 -32 -54 -72 -67 -87 -14 -16 -64 -85 -111 -154 -46 -68 -111 -150 -143 -182 -33 -31 -59 -68 -59 -82 0 -54 -44 4 -59 76 -13 69 28 175 147 373 13 23 57 98 97 166 188 324 896 1332 966 1375 38 23 28 81 -21 130 -25 24 -84 95 -131 157 -196 259 -338 375 -457 375 -338 0 -722 489 -639 813 57 219 56 230 -16 277 -64 42 -72 42 -142 2 -108 -62 -166 -54 -186 25 -41 164 240 236 446 114z m27152 -1 c38 -33 66 -35 175 -13 344 71 646 -216 692 -657 25 -241 117 -429 358 -735 135 -171 185 -181 268 -53 34 53 115 175 180 271 141 210 191 340 211 557 39 408 371 750 667 686 126 -27 256 -178 291 -337 83 -375 -224 -874 -537 -874 -173 0 -306 -108 -574 -468 -53 -71 -111 -135 -128 -142 -46 -18 -17 -93 73 -194 44 -49 96 -114 117 -146 21 -31 49 -69 63 -84 73 -78 476 -638 550 -761 13 -23 54 -82 89 -130 69 -94 292 -462 356 -590 43 -84 31 -185 -22 -185 -18 0 -99 85 -178 189 -152 199 -328 420 -745 938 -138 171 -284 356 -324 411 -41 55 -81 105 -90 112 -9 7 -30 38 -46 69 -16 31 -40 56 -53 56 -13 0 -162 -182 -331 -404 -168 -222 -335 -441 -369 -486 -164 -214 -517 -685 -550 -735 -122 -183 -249 -160 -174 32 42 107 413 731 503 847 39 50 71 99 71 108 0 10 50 83 110 162 61 80 122 168 137 196 15 28 42 66 59 84 18 19 51 63 74 99 23 36 87 118 143 183 56 64 102 133 102 154 0 40 -327 436 -441 534 -41 35 -120 69 -184 78 -178 27 -279 76 -403 198 -203 198 -244 347 -216 788 l7 100 -107 7 c-63 5 -106 -3 -106 -19 0 -14 -33 -26 -73 -26 -129 0 -124 171 6 226 75 31 295 2 349 -46z m-1672 -8911 c65 -45 137 -93 160 -107 48 -29 75 -46 505 -323 376 -242 391 -252 490 -302 264 -133 243 -282 -41 -300 -283 -19 -683 -63 -793 -88 -58 -13 -218 -31 -356 -40 -301 -20 -320 -59 -85 -171 175 -84 762 -459 785 -501 37 -68 -1 -166 -82 -209 -59 -32 -85 -18 -496 252 -605 397 -638 418 -734 469 -233 124 -275 165 -275 265 l0 99 256 17 c141 9 315 28 387 42 73 14 306 39 519 55 431 34 515 64 372 135 -248 123 -897 532 -919 580 -21 46 -13 68 46 132 89 95 115 95 261 -5z m-20115 -1507 c90 -103 70 -144 -164 -340 -120 -102 -224 -190 -231 -198 -7 -7 -60 -50 -119 -95 -131 -103 -131 -99 9 -232 63 -60 187 -202 277 -316 89 -113 167 -206 172 -206 14 0 325 272 496 435 161 152 219 169 307 86 120 -113 105 -139 -279 -458 -165 -137 -324 -272 -352 -300 -28 -28 -91 -84 -139 -125 -48 -42 -167 -146 -263 -232 -195 -173 -280 -197 -360 -100 -88 105 -64 154 155 323 113 87 209 172 214 188 5 16 -76 122 -181 237 -105 115 -221 250 -258 302 -93 129 -137 119 -343 -81 -206 -199 -207 -200 -314 -104 -112 99 -88 170 109 320 86 66 202 160 257 211 510 466 847 748 897 748 31 0 81 -28 110 -63z m18523 -1052 c223 -95 277 -129 408 -260 212 -210 260 -330 259 -650 -2 -312 -42 -422 -234 -631 -383 -420 -1082 -394 -1419 51 -211 279 -255 674 -111 980 191 406 741 661 1097 510z m-15191 -822 c0 -14 -23 -29 -51 -33 -50 -8 -68 20 -33 54 24 25 85 9 84 -21z m-757 -518 c36 -36 39 -156 6 -218 -13 -25 -31 -122 -39 -217 -9 -95 -26 -195 -38 -222 -13 -28 -34 -140 -47 -250 -13 -110 -35 -262 -49 -338 -26 -144 -76 -488 -88 -607 -14 -137 -123 -175 -227 -79 -61 56 -67 77 -55 169 26 188 66 428 81 494 14 58 -1 76 -131 161 -80 53 -209 145 -287 204 -153 116 -197 129 -246 71 -17 -21 -40 -38 -52 -38 -11 0 -69 -31 -128 -69 -185 -118 -206 -130 -264 -155 -116 -51 -256 56 -217 166 24 65 51 82 511 326 117 62 224 121 238 131 13 11 109 64 212 120 103 55 252 136 332 178 79 43 186 106 237 139 102 67 204 81 251 34z m13153 -444 c25 -13 95 -105 155 -203 60 -99 126 -206 147 -238 155 -240 450 -737 450 -759 0 -14 5 -26 10 -26 6 0 27 -6 46 -13 19 -8 62 11 95 40 234 206 369 218 433 38 20 -54 -43 -165 -93 -165 -19 0 -78 -31 -132 -69 -299 -208 -379 -243 -435 -192 -39 35 -231 330 -369 568 -18 30 -52 85 -75 122 -23 37 -75 121 -115 188 -40 66 -133 211 -207 322 -156 237 -164 293 -52 361 95 58 85 56 142 26z m-11036 -785 c44 -66 39 -86 -69 -316 -42 -89 -109 -236 -150 -325 -40 -89 -89 -194 -108 -233 -19 -39 -35 -82 -35 -95 0 -12 -33 -93 -73 -179 -110 -237 -152 -336 -152 -360 0 -39 -126 -158 -168 -158 -62 0 -157 101 -157 168 0 32 32 123 72 201 40 79 136 295 215 481 79 186 169 394 201 463 102 223 137 307 137 330 0 97 227 115 287 23z m9397 -762 c304 -301 613 -600 685 -666 145 -133 166 -210 75 -274 -111 -78 -169 -52 -406 186 -236 234 -277 254 -405 189 -77 -38 -213 -89 -370 -139 -154 -48 -157 -54 -176 -370 -19 -318 -71 -430 -201 -430 -128 0 -140 75 -79 513 60 429 92 709 119 1037 36 452 50 489 183 498 12 1 270 -244 575 -544z m-7650 150 c513 -274 450 -1004 -96 -1127 -101 -22 -107 -84 -21 -205 232 -327 265 -459 127 -508 -96 -33 -185 38 -282 226 -91 178 -169 203 -183 60 -9 -99 -66 -175 -130 -175 -112 0 -219 168 -151 239 22 23 85 232 127 424 26 119 66 278 115 452 19 70 35 150 35 178 0 28 17 91 38 141 20 49 37 130 37 179 0 62 19 108 62 151 73 73 132 66 322 -35z m4623 -269 c124 -63 191 -135 207 -224 35 -183 -98 -243 -243 -111 -108 99 -250 105 -310 14 -57 -88 -5 -184 139 -255 62 -30 190 -92 284 -138 417 -203 547 -612 286 -908 -307 -349 -970 -249 -970 146 0 198 100 219 253 54 100 -109 109 -113 248 -113 210 0 311 95 293 277 -15 156 -45 185 -346 330 -407 197 -498 295 -498 534 0 310 376 536 657 394z"/>
    <path d="M15716 34656 c-28 -46 -14 -476 17 -502 23 -19 84 5 225 88 221 130 222 123 -18 291 -205 143 -210 146 -224 123z"/>
    <path d="M21450 33776 c-145 -8 -274 -22 -288 -31 -13 -8 -120 -23 -236 -32 -117 -9 -220 -22 -231 -29 -11 -6 -118 -27 -238 -47 -368 -59 -1047 -215 -1133 -261 -21 -11 -77 -27 -125 -37 -47 -9 -109 -27 -136 -38 -28 -12 -135 -47 -238 -78 -103 -32 -198 -67 -211 -78 -13 -11 -40 -20 -59 -20 -19 0 -70 -16 -114 -36 -43 -20 -180 -77 -303 -127 -410 -164 -1051 -482 -1288 -638 -21 -13 -54 -32 -75 -41 -150 -69 -829 -514 -1112 -729 -1717 -1307 -3028 -3041 -3775 -4991 -36 -97 -76 -198 -88 -225 -11 -28 -40 -112 -64 -188 -23 -76 -54 -166 -67 -200 -14 -34 -40 -119 -57 -187 -18 -69 -52 -187 -74 -263 -199 -658 -354 -1654 -385 -2475 -63 -1637 144 -3000 677 -4450 188 -512 563 -1326 748 -1625 21 -34 121 -203 223 -375 101 -172 193 -324 205 -337 20 -24 230 -318 300 -422 17 -25 62 -82 100 -125 37 -43 68 -86 69 -95 0 -10 14 -32 32 -50 17 -19 80 -95 139 -171 604 -767 1761 -1823 2540 -2318 561 -356 1368 -800 1728 -950 309 -128 715 -282 746 -282 20 0 44 -11 53 -25 8 -14 34 -25 57 -25 23 0 72 -16 107 -34 36 -19 109 -42 163 -52 54 -10 109 -27 123 -38 13 -11 68 -27 121 -37 54 -10 115 -27 138 -39 171 -89 1253 -290 1966 -364 326 -34 1790 -41 2050 -9 27 3 179 21 337 39 437 49 660 80 701 95 20 8 121 31 224 50 263 50 418 85 563 126 68 20 192 54 275 76 82 23 178 50 212 62 34 11 147 46 250 77 103 32 198 67 211 78 13 11 39 20 57 20 31 0 414 143 570 212 422 189 973 460 1137 559 48 30 104 61 125 71 165 76 770 476 1163 768 584 435 1341 1144 1789 1678 115 137 216 255 224 262 92 78 705 962 937 1348 181 303 490 905 623 1215 23 55 58 133 77 175 69 152 209 532 287 775 44 137 88 272 99 300 34 90 97 321 150 550 29 123 63 264 77 312 13 48 36 161 51 250 15 89 43 253 62 363 207 1179 184 2794 -55 3987 -73 363 -171 778 -222 938 -17 55 -51 167 -75 250 -24 82 -53 172 -63 200 -11 27 -44 123 -74 212 -31 89 -71 198 -90 241 -19 44 -35 92 -35 107 0 15 -11 47 -24 71 -13 24 -48 100 -76 169 -29 68 -62 147 -74 175 -603 1423 -1681 2890 -2954 4019 -446 395 -1273 993 -1684 1217 -55 30 -134 75 -175 101 -138 85 -528 287 -763 395 -522 240 -773 340 -1250 494 -199 65 -385 126 -412 137 -61 24 -222 66 -425 112 -83 18 -173 39 -200 46 -128 33 -408 93 -475 102 -42 6 -233 34 -425 63 -629 95 -1777 129 -2638 77z m11 -5651 c466 -46 788 -218 904 -484 25 -57 47 -107 50 -112 4 -5 88 20 189 54 964 326 1877 -65 2150 -923 49 -155 55 -225 55 -688 -1 -512 -8 -572 -112 -984 -14 -55 -32 -134 -39 -175 -8 -42 -22 -87 -32 -100 -10 -14 -44 -110 -75 -213 -31 -103 -71 -221 -89 -262 -18 -42 -75 -177 -126 -300 -118 -290 -267 -602 -399 -838 -58 -103 -148 -266 -200 -362 -88 -163 -433 -719 -480 -775 -12 -14 -48 -70 -81 -125 -34 -55 -67 -106 -75 -113 -7 -7 -75 -102 -150 -212 -75 -110 -146 -212 -157 -225 -11 -14 -40 -50 -65 -80 -24 -30 -66 -94 -92 -144 -27 -49 -57 -89 -68 -89 -10 0 -19 -22 -19 -50 0 -27 9 -50 20 -50 31 0 290 291 656 738 180 220 352 427 382 462 30 34 111 130 180 212 158 190 239 284 288 335 22 22 95 108 163 190 68 83 281 325 472 538 192 213 389 432 438 487 1097 1229 1911 1863 2392 1863 299 0 443 -130 524 -470 57 -238 10 -587 -158 -1180 -21 -76 -48 -160 -59 -187 -76 -187 -108 -269 -159 -413 -95 -267 -613 -1342 -730 -1515 -32 -48 -59 -94 -59 -101 0 -8 -67 -126 -150 -263 -254 -421 -211 -424 189 -16 164 168 422 418 574 555 151 137 280 256 287 264 33 37 361 313 563 473 123 98 237 188 251 200 41 33 359 254 497 346 69 45 198 116 288 159 90 42 184 88 209 101 64 34 344 57 452 37 365 -69 262 -745 -291 -1915 -262 -556 -486 -1020 -519 -1075 -61 -105 -400 -816 -400 -841 0 -15 -17 -42 -37 -59 -21 -17 -38 -47 -38 -65 0 -31 -75 -209 -188 -447 -69 -145 -187 -549 -187 -639 0 -134 67 -185 216 -165 65 9 136 33 159 54 23 20 48 37 57 37 9 0 56 27 104 60 410 278 1152 1053 1703 1778 136 178 259 337 273 353 14 15 40 49 58 75 44 65 423 613 457 661 15 22 81 117 146 213 135 198 232 242 276 125 25 -67 4 -104 -403 -690 -62 -89 -167 -241 -233 -337 -98 -142 -347 -479 -444 -600 -11 -14 -54 -70 -96 -125 -79 -105 -217 -275 -261 -323 -14 -15 -70 -83 -125 -151 -358 -443 -976 -1040 -1250 -1207 -410 -248 -798 -231 -910 39 -60 144 1 733 92 896 17 30 31 72 31 93 0 21 18 81 40 133 22 52 57 134 77 182 21 48 53 119 73 158 19 39 35 84 35 100 0 16 35 102 77 192 42 89 109 230 148 313 39 82 272 560 519 1062 247 502 486 991 530 1088 44 96 96 204 116 241 19 36 35 87 35 113 0 26 15 69 34 96 49 72 72 254 39 316 -54 100 -260 40 -667 -195 -44 -25 -81 -55 -81 -65 0 -11 -12 -19 -26 -19 -20 0 -323 -214 -486 -344 -14 -11 -99 -75 -188 -143 -195 -148 -545 -443 -1024 -862 -602 -528 -1293 -1204 -1419 -1390 -85 -125 -172 -154 -248 -82 -88 82 -70 151 116 446 36 58 759 1515 849 1713 44 96 101 220 126 275 72 155 246 548 310 700 17 41 49 114 70 162 107 241 251 613 309 800 23 76 53 165 66 200 102 263 95 675 -13 794 -215 238 -1079 -426 -2266 -1744 -142 -158 -299 -332 -349 -387 -49 -55 -166 -188 -259 -297 -94 -108 -184 -211 -200 -228 -17 -17 -75 -85 -130 -152 -55 -66 -206 -245 -335 -397 -129 -152 -281 -332 -337 -399 -57 -67 -115 -135 -128 -150 -83 -91 -938 -1123 -1329 -1602 -134 -165 -312 -379 -395 -475 -83 -96 -160 -186 -170 -200 -10 -14 -53 -65 -96 -113 -42 -48 -118 -138 -169 -199 -50 -62 -115 -135 -144 -163 -48 -46 -300 -334 -460 -525 -228 -272 -306 -300 -412 -145 -127 188 -93 324 166 651 101 128 226 291 278 363 52 72 166 226 253 343 247 332 690 952 690 966 0 7 51 79 113 159 61 80 112 154 112 163 0 10 31 58 69 109 38 50 80 110 94 133 34 58 277 439 408 640 146 225 528 858 625 1036 44 79 111 203 151 275 107 195 453 885 453 903 0 19 138 325 189 420 20 36 36 87 37 112 0 26 17 68 37 95 20 27 37 68 37 92 0 24 16 75 36 114 70 139 174 562 229 928 95 632 -68 1135 -477 1476 -281 233 -666 333 -975 252 -55 -15 -129 -32 -163 -38 -293 -56 -431 -122 -497 -237 -80 -141 -185 -261 -316 -364 -104 -81 -527 -291 -639 -318 -102 -24 -183 -100 -376 -357 -174 -232 -422 -677 -422 -759 0 -22 -11 -51 -24 -64 -30 -30 -80 -301 -95 -511 -15 -220 43 -475 176 -775 77 -174 125 -192 178 -66 76 183 307 272 453 176 87 -57 79 -115 -54 -377 -63 -126 -109 -246 -102 -266 8 -21 88 -73 178 -118 235 -115 283 -207 137 -258 -67 -24 -138 14 -292 153 -99 89 -103 86 -217 -219 -43 -113 -78 -198 -152 -369 -23 -51 -56 -130 -75 -175 -44 -103 -87 -199 -184 -412 -42 -93 -77 -176 -77 -185 0 -27 -475 -984 -538 -1085 -87 -137 -84 -210 7 -187 37 9 81 27 96 40 15 12 110 66 212 119 190 98 219 115 515 296 609 371 1135 863 1471 1372 161 244 196 271 292 221 84 -44 84 -43 15 -157 -343 -566 -1074 -1276 -1689 -1640 -23 -14 -86 -52 -141 -85 -165 -99 -515 -269 -752 -366 -264 -107 -254 -99 -376 -324 -52 -97 -123 -220 -159 -275 -35 -55 -84 -138 -109 -183 -135 -247 -620 -926 -868 -1217 -84 -100 -620 -634 -714 -712 -124 -104 -384 -301 -397 -301 -7 0 -83 -48 -170 -106 -136 -92 -283 -166 -607 -307 -42 -18 -104 -38 -138 -45 -34 -7 -96 -23 -137 -37 -344 -116 -1076 -152 -1339 -66 -506 165 -699 410 -699 887 0 567 446 1032 1375 1433 48 20 138 59 200 86 62 26 169 69 238 93 68 25 135 55 148 66 13 12 45 21 71 21 27 0 83 15 127 33 109 47 558 192 593 192 15 0 63 15 107 34 43 18 146 53 229 77 82 24 195 58 250 75 55 17 167 51 250 75 82 24 195 58 250 76 55 17 167 51 250 75 82 25 195 58 250 75 55 17 167 51 250 75 82 25 205 64 273 87 l124 43 289 575 c159 317 335 676 393 798 113 242 242 525 267 585 9 21 26 54 39 75 13 21 65 128 114 238 50 110 101 219 114 243 30 54 31 119 3 119 -12 0 -167 -144 -344 -320 -177 -175 -358 -349 -402 -386 -99 -83 -555 -421 -621 -461 -27 -17 -139 -85 -249 -151 -574 -347 -1173 -590 -1625 -658 -476 -72 -631 -79 -827 -39 -105 22 -223 40 -261 40 -38 0 -102 17 -141 37 -39 21 -92 38 -116 38 -25 0 -90 23 -146 51 -742 379 -1056 1067 -963 2112 19 212 38 306 132 637 40 139 52 173 172 484 54 141 274 587 375 760 273 469 764 1040 1200 1397 123 101 239 196 256 210 17 14 31 43 31 63 0 21 -14 41 -31 45 -178 45 -436 139 -722 264 -113 49 -173 140 -134 203 30 49 191 22 368 -62 100 -47 227 -104 282 -126 55 -22 129 -57 166 -77 36 -20 83 -36 103 -36 20 0 51 -17 68 -37 54 -65 127 -43 348 106 377 254 813 469 1302 643 311 110 480 161 625 186 62 11 163 32 225 47 526 127 1397 184 1961 130z m9264 -6725 c0 -26 -10 -54 -23 -61 -29 -18 -61 76 -39 111 22 37 62 5 62 -50z"/>
    <path d="M20362 27843 c-22 -12 -121 -32 -220 -43 -233 -27 -547 -99 -779 -179 -42 -14 -120 -36 -175 -50 -55 -13 -111 -34 -124 -47 -13 -13 -41 -24 -63 -24 -57 1 -547 -215 -876 -385 -158 -82 -330 -170 -381 -197 -52 -26 -94 -58 -94 -70 0 -35 104 -81 225 -101 62 -10 158 -29 213 -42 111 -26 435 -82 843 -144 308 -47 1508 -41 1732 8 195 44 366 82 464 103 61 14 166 87 325 227 129 114 261 219 292 233 31 14 56 35 56 47 0 12 11 21 24 21 13 0 72 31 131 69 59 38 130 81 158 96 102 56 80 190 -51 305 -207 182 -352 210 -1060 202 -330 -3 -618 -16 -640 -29z"/>
    <path d="M17287 26595 c-650 -525 -1235 -1188 -1528 -1732 -30 -55 -78 -140 -106 -188 -29 -48 -60 -104 -68 -125 -9 -21 -46 -105 -84 -187 -38 -83 -89 -201 -113 -263 -24 -62 -54 -135 -66 -162 -36 -80 -98 -314 -121 -450 -11 -69 -34 -170 -50 -225 -38 -127 -21 -780 24 -938 38 -131 92 -272 126 -325 13 -21 35 -63 49 -94 13 -32 38 -74 56 -94 342 -403 689 -551 1319 -566 192 -5 648 77 850 152 334 124 712 292 863 383 27 17 106 64 175 104 145 86 619 393 637 414 7 7 86 69 175 138 278 211 798 711 989 948 275 343 269 325 152 487 -209 287 -265 475 -265 901 -1 185 10 370 23 413 102 332 137 428 214 579 108 215 122 237 268 426 66 84 119 162 119 172 0 22 -242 0 -400 -35 -147 -34 -1265 -34 -1475 -1 -89 14 -247 35 -350 48 -238 28 -454 69 -609 114 -67 20 -146 36 -175 37 -29 0 -82 17 -116 37 -34 19 -91 36 -125 37 -34 1 -84 18 -111 38 -77 58 -169 44 -277 -43z"/>
    <path d="M18838 20060 c-55 -21 -129 -47 -165 -58 -35 -12 -86 -32 -112 -45 -60 -31 -270 -97 -379 -119 -45 -9 -88 -27 -96 -40 -8 -13 -41 -23 -74 -23 -33 0 -97 -16 -142 -35 -46 -19 -167 -60 -270 -90 -103 -31 -268 -82 -367 -115 -98 -33 -192 -60 -208 -60 -17 0 -65 -16 -109 -35 -43 -19 -140 -54 -216 -78 -357 -112 -848 -311 -1187 -479 -124 -61 -248 -125 -275 -141 -498 -300 -716 -578 -756 -960 -34 -321 116 -518 493 -650 130 -46 667 -51 748 -8 27 14 80 26 119 26 87 0 272 59 476 153 86 40 161 72 167 72 16 0 382 218 473 282 119 83 717 595 718 614 1 9 86 107 190 217 197 209 684 841 895 1162 67 103 155 228 193 279 125 161 84 207 -116 131z"/>
    <path d="M9985 24208 c-221 -110 -342 -556 -198 -728 110 -131 290 -94 433 90 277 354 110 810 -235 638z"/>
    <path d="M7829 24142 c-273 -292 171 -979 470 -727 82 69 82 70 71 258 -9 149 -25 212 -77 293 -132 210 -354 294 -464 176z"/>
    <path d="M37157 24210 c-252 -152 -373 -573 -212 -734 114 -114 219 -105 366 30 247 227 279 600 64 728 -89 52 -92 52 -218 -24z"/>
    <path d="M34989 24141 c-92 -79 -103 -385 -19 -521 101 -162 253 -270 383 -270 193 0 241 424 75 655 -138 191 -312 245 -439 136z"/>
    <path d="M31082 12604 c-295 -120 -478 -468 -393 -748 98 -319 315 -481 640 -480 199 0 215 5 345 94 76 51 149 117 164 146 15 30 42 73 61 96 22 25 39 122 45 246 10 188 5 215 -63 342 -153 287 -508 423 -799 304z"/>
    <path d="M15111 11085 c-66 -47 -139 -85 -163 -85 -23 0 -49 -17 -57 -37 -18 -47 5 -113 39 -113 14 0 67 -33 117 -73 87 -69 130 -87 194 -80 18 2 29 57 30 142 1 76 9 175 18 221 22 120 -34 128 -178 25z"/>
    <path d="M26640 9538 c-61 -94 -57 -413 6 -413 25 0 54 8 64 19 10 10 70 35 133 56 183 60 185 93 21 258 -162 162 -169 164 -224 80z"/>
    <path d="M19360 9431 c-16 -10 -36 -75 -46 -143 -10 -69 -29 -138 -42 -154 -13 -15 -26 -88 -29 -161 -7 -177 40 -187 193 -41 104 100 114 120 114 227 0 132 -82 290 -150 290 -7 0 -25 -8 -40 -18z"/>
  </g>
</svg>
